REM DIRINDEX 1\2\6,1\2\4\7,1\2\4\8,1\2\5\9,1\3\12,1\3\10\13,1\3\10\14,1\3\10\15,1\3\11\16,1\3\11\17
REM DIRNAME cjc048,folder01,folder02,folder03,folder04,folder05,folder06,folder07,folder08,folder09,folder10,folder11,folder12,folder13,folder14,folder15,folder16
TITLE ""
FILE "094.mp3" MP3
  TRACK 01 AUDIO
    TITLE "6:cjc048_02310"
    INDEX 01 00:00:00
  TRACK 02 AUDIO
    TITLE "9:cjc048_02311"
    INDEX 01 00:01:69
  TRACK 03 AUDIO
    TITLE "0:"
    INDEX 01 00:03:21
  TRACK 04 AUDIO
    TITLE "9:cjc048_02312"
    INDEX 01 00:03:66
  TRACK 05 AUDIO
    TITLE "0:"
    INDEX 01 00:04:68
  TRACK 06 AUDIO
    TITLE "9:cjc048_02313"
    INDEX 01 00:05:40
  TRACK 07 AUDIO
    TITLE "0:"
    INDEX 01 00:06:73
  TRACK 08 AUDIO
    TITLE "9:cjc048_02314"
    INDEX 01 00:07:45
  TRACK 09 AUDIO
    TITLE "0:"
    INDEX 01 00:09:26
  TRACK 10 AUDIO
    TITLE "9:cjc048_02315"
    INDEX 01 00:09:73
  TRACK 11 AUDIO
    TITLE "0:"
    INDEX 01 00:11:01
  TRACK 12 AUDIO
    TITLE "9:cjc048_02316"
    INDEX 01 00:11:48
  TRACK 13 AUDIO
    TITLE "0:"
    INDEX 01 00:12:73
  TRACK 14 AUDIO
    TITLE "9:cjc048_02317"
    INDEX 01 00:13:43
  TRACK 15 AUDIO
    TITLE "0:"
    INDEX 01 00:14:58
  TRACK 16 AUDIO
    TITLE "9:cjc048_02318"
    INDEX 01 00:15:28
  TRACK 17 AUDIO
    TITLE "0:"
    INDEX 01 00:16:53
  TRACK 18 AUDIO
    TITLE "9:cjc048_02319"
    INDEX 01 00:17:23
  TRACK 19 AUDIO
    TITLE "0:"
    INDEX 01 00:18:41
  TRACK 20 AUDIO
    TITLE "9:cjc048_02320"
    INDEX 01 00:19:11
  TRACK 21 AUDIO
    TITLE "0:"
    INDEX 01 00:20:59
  TRACK 22 AUDIO
    TITLE "9:cjc048_02321"
    INDEX 01 00:21:29
  TRACK 23 AUDIO
    TITLE "0:"
    INDEX 01 00:22:40
  TRACK 24 AUDIO
    TITLE "9:cjc048_02322"
    INDEX 01 00:23:10
  TRACK 25 AUDIO
    TITLE "0:"
    INDEX 01 00:24:02
  TRACK 26 AUDIO
    TITLE "9:cjc048_02323"
    INDEX 01 00:24:59
  TRACK 27 AUDIO
    TITLE "0:"
    INDEX 01 00:25:52
  TRACK 28 AUDIO
    TITLE "9:cjc048_02324"
    INDEX 01 00:26:22
  TRACK 29 AUDIO
    TITLE "0:"
    INDEX 01 00:27:34
  TRACK 30 AUDIO
    TITLE "9:cjc048_02325"
    INDEX 01 00:28:06
  TRACK 31 AUDIO
    TITLE "0:"
    INDEX 01 00:29:05
  TRACK 32 AUDIO
    TITLE "9:cjc048_02326"
    INDEX 01 00:29:50
  TRACK 33 AUDIO
    TITLE "0:"
    INDEX 01 00:31:49
  TRACK 34 AUDIO
    TITLE "9:cjc048_02327"
    INDEX 01 00:32:21
  TRACK 35 AUDIO
    TITLE "0:"
    INDEX 01 00:33:32
  TRACK 36 AUDIO
    TITLE "9:cjc048_02328"
    INDEX 01 00:34:02
  TRACK 37 AUDIO
    TITLE "0:"
    INDEX 01 00:35:14
  TRACK 38 AUDIO
    TITLE "9:cjc048_02329"
    INDEX 01 00:35:59
  TRACK 39 AUDIO
    TITLE "0:"
    INDEX 01 00:36:74
  TRACK 40 AUDIO
    TITLE "9:cjc048_02330"
    INDEX 01 00:37:46
  TRACK 41 AUDIO
    TITLE "0:"
    INDEX 01 00:39:21
  TRACK 42 AUDIO
    TITLE "9:cjc048_02331"
    INDEX 01 00:39:66
  TRACK 43 AUDIO
    TITLE "0:"
    INDEX 01 00:40:73
  TRACK 44 AUDIO
    TITLE "9:cjc048_02332"
    INDEX 01 00:41:44
  TRACK 45 AUDIO
    TITLE "0:"
    INDEX 01 00:43:17
  TRACK 46 AUDIO
    TITLE "9:cjc048_02333"
    INDEX 01 00:43:60
  TRACK 47 AUDIO
    TITLE "0:"
    INDEX 01 00:45:33
  TRACK 48 AUDIO
    TITLE "9:cjc048_02334"
    INDEX 01 00:46:06
  TRACK 49 AUDIO
    TITLE "0:"
    INDEX 01 00:47:05
  TRACK 50 AUDIO
    TITLE "9:cjc048_02335"
    INDEX 01 00:47:54
  TRACK 51 AUDIO
    TITLE "0:"
    INDEX 01 00:48:71
  TRACK 52 AUDIO
    TITLE "9:cjc048_02336"
    INDEX 01 00:49:41
  TRACK 53 AUDIO
    TITLE "0:"
    INDEX 01 00:50:46
  TRACK 54 AUDIO
    TITLE "9:cjc048_02337"
    INDEX 01 00:51:16
  TRACK 55 AUDIO
    TITLE "0:"
    INDEX 01 00:52:28
  TRACK 56 AUDIO
    TITLE "9:cjc048_02338"
    INDEX 01 00:52:73
  TRACK 57 AUDIO
    TITLE "0:"
    INDEX 01 00:54:03
  TRACK 58 AUDIO
    TITLE "9:cjc048_02339"
    INDEX 01 00:54:48
  TRACK 59 AUDIO
    TITLE "0:"
    INDEX 01 00:55:61
  TRACK 60 AUDIO
    TITLE "9:cjc048_02340"
    INDEX 01 00:56:31
  TRACK 61 AUDIO
    TITLE "0:"
    INDEX 01 00:57:54
  TRACK 62 AUDIO
    TITLE "9:cjc048_02341"
    INDEX 01 00:58:22
  TRACK 63 AUDIO
    TITLE "0:"
    INDEX 01 00:59:34
  TRACK 64 AUDIO
    TITLE "9:cjc048_02342"
    INDEX 01 01:00:06
  TRACK 65 AUDIO
    TITLE "0:"
    INDEX 01 01:01:05
  TRACK 66 AUDIO
    TITLE "9:cjc048_02343"
    INDEX 01 01:01:50
  TRACK 67 AUDIO
    TITLE "0:"
    INDEX 01 01:02:71
  TRACK 68 AUDIO
    TITLE "9:cjc048_02344"
    INDEX 01 01:03:41
  TRACK 69 AUDIO
    TITLE "0:"
    INDEX 01 01:04:62
  TRACK 70 AUDIO
    TITLE "9:cjc048_02345"
    INDEX 01 01:05:32
  TRACK 71 AUDIO
    TITLE "0:"
    INDEX 01 01:06:47
  TRACK 72 AUDIO
    TITLE "9:cjc048_02346"
    INDEX 01 01:07:17
  TRACK 73 AUDIO
    TITLE "0:"
    INDEX 01 01:08:29
  TRACK 74 AUDIO
    TITLE "9:cjc048_02347"
    INDEX 01 01:09:01
  TRACK 75 AUDIO
    TITLE "0:"
    INDEX 01 01:09:71
  TRACK 76 AUDIO
    TITLE "9:cjc048_02348"
    INDEX 01 01:10:53
  TRACK 77 AUDIO
    TITLE "0:"
    INDEX 01 01:11:54
  TRACK 78 AUDIO
    TITLE "9:cjc048_02349"
    INDEX 01 01:12:24
  TRACK 79 AUDIO
    TITLE "0:"
    INDEX 01 01:13:26
  TRACK 80 AUDIO
    TITLE "9:cjc048_02350"
    INDEX 01 01:13:71
  TRACK 81 AUDIO
    TITLE "0:"
    INDEX 01 01:15:11
  TRACK 82 AUDIO
    TITLE "9:cjc048_02351"
    INDEX 01 01:15:56
  TRACK 83 AUDIO
    TITLE "0:"
    INDEX 01 01:16:56
  TRACK 84 AUDIO
    TITLE "9:cjc048_02352"
    INDEX 01 01:17:28
  TRACK 85 AUDIO
    TITLE "0:"
    INDEX 01 01:18:35
  TRACK 86 AUDIO
    TITLE "9:cjc048_02353"
    INDEX 01 01:19:05
  TRACK 87 AUDIO
    TITLE "0:"
    INDEX 01 01:20:28
  TRACK 88 AUDIO
    TITLE "9:cjc048_02354"
    INDEX 01 01:21:00
  TRACK 89 AUDIO
    TITLE "0:"
    INDEX 01 01:22:35
